<svg width="21" height="30" viewBox="0 0 21 30" fill="none" xmlns="http://www.w3.org/2000/svg">
<g clip-path="url(#clip0_74_2123)">
<path d="M18.5147 6.0448H15.7177C15.6317 6.054 15.5522 6.09466 15.4944 6.15895C15.4367 6.22324 15.4047 6.30662 15.4047 6.39306C15.4047 6.47949 15.4367 6.56288 15.4944 6.62717C15.5522 6.69146 15.6317 6.73212 15.7177 6.74132H18.5147C18.667 6.74106 18.8178 6.77086 18.9586 6.82902C19.0994 6.88719 19.2273 6.97256 19.335 7.08026C19.4426 7.18795 19.528 7.31584 19.5862 7.4566C19.6444 7.59736 19.6742 7.74822 19.6739 7.90052V13.5642C19.6734 13.8706 19.5513 14.1643 19.3346 14.3808C19.1179 14.5974 18.8241 14.7192 18.5177 14.7194C18.4248 14.7194 18.3357 14.7563 18.27 14.822C18.2043 14.8877 18.1674 14.9768 18.1674 15.0697V16.5503L16.1197 14.801C16.0564 14.747 15.976 14.7174 15.8928 14.7174H9.7724C9.46635 14.7172 9.17286 14.5957 8.95617 14.3796C8.73948 14.1634 8.61723 13.8703 8.61618 13.5642V7.90052C8.61592 7.74847 8.64563 7.59786 8.7036 7.45729C8.76158 7.31673 8.84669 7.18897 8.95406 7.08131C9.06144 6.97366 9.18898 6.88822 9.3294 6.82988C9.46981 6.77154 9.62035 6.74145 9.7724 6.74132H16.4759C16.5618 6.73212 16.6413 6.69146 16.6991 6.62717C16.7569 6.56288 16.7888 6.47949 16.7888 6.39306C16.7888 6.30662 16.7569 6.22324 16.6991 6.15895C16.6413 6.09466 16.5618 6.054 16.4759 6.0448H9.7724C9.28039 6.04533 8.80869 6.24101 8.46079 6.58891C8.11289 6.93681 7.9172 7.40851 7.91668 7.90052V12.3413H4.31568C3.82368 12.3418 3.35197 12.5375 3.00407 12.8854C2.65617 13.2333 2.46049 13.705 2.45996 14.197V19.8617C2.46064 20.2929 2.6112 20.7104 2.88584 21.0427C3.16048 21.3751 3.54213 21.6017 3.96543 21.6836V23.606C3.96566 23.6728 3.98496 23.7381 4.02106 23.7942C4.05717 23.8504 4.10857 23.8951 4.16922 23.923C4.22987 23.9509 4.29723 23.9609 4.36337 23.9518C4.42952 23.9427 4.49168 23.9149 4.54255 23.8717L7.06693 21.7164H13.058C13.55 21.7159 14.0217 21.5202 14.3696 21.1723C14.7175 20.8244 14.9132 20.3527 14.9137 19.8607V15.4199H15.7644L18.2888 17.5751C18.3397 17.6184 18.4019 17.6462 18.468 17.6553C18.5341 17.6644 18.6015 17.6544 18.6621 17.6265C18.7228 17.5985 18.7742 17.5539 18.8103 17.4977C18.8464 17.4416 18.8657 17.3762 18.8659 17.3095V15.3871C19.2892 15.3049 19.6708 15.0781 19.9452 14.7456C20.2197 14.413 20.37 13.9954 20.3704 13.5642V7.90052C20.3699 7.40851 20.1742 6.93681 19.8263 6.58891C19.4784 6.24101 19.0067 6.04533 18.5147 6.0448ZM8.6928 15.8219L9.38931 17.6587H7.99628L8.6928 15.8219ZM14.2142 19.8607C14.2139 20.1671 14.0922 20.4609 13.8756 20.6776C13.659 20.8944 13.3654 21.0164 13.059 21.0169H6.93757C6.85441 21.0169 6.77397 21.0465 6.71071 21.1005L4.66494 22.8468V21.3682C4.66494 21.2753 4.62804 21.1862 4.56235 21.1205C4.49667 21.0548 4.40758 21.0179 4.31469 21.0179C4.16264 21.0181 4.01205 20.9882 3.87154 20.9301C3.73102 20.872 3.60333 20.7868 3.49577 20.6793C3.38821 20.5719 3.30288 20.4443 3.24466 20.3038C3.18644 20.1633 3.15648 20.0128 3.15648 19.8607V14.197C3.15661 14.045 3.1867 13.8945 3.24504 13.754C3.30338 13.6136 3.38882 13.4861 3.49647 13.3787C3.60413 13.2713 3.73189 13.1862 3.87245 13.1282C4.01302 13.0703 4.16363 13.0406 4.31568 13.0408H7.91767V13.5642C7.91752 14.0132 8.08094 14.4469 8.37737 14.7841C8.33865 14.8244 8.30793 14.8717 8.28683 14.9234V14.9314L6.79429 18.8627C6.77497 18.9062 6.76471 18.9532 6.76415 19.0008C6.7636 19.0484 6.77275 19.0956 6.79104 19.1395C6.80934 19.1835 6.83641 19.2232 6.87058 19.2564C6.90476 19.2895 6.94533 19.3153 6.98982 19.3322C7.0343 19.3492 7.08178 19.3569 7.12933 19.3548C7.17689 19.3528 7.22353 19.3411 7.26641 19.3204C7.3093 19.2998 7.34752 19.2706 7.37874 19.2347C7.40996 19.1987 7.43354 19.1568 7.44802 19.1115L7.73558 18.3572H9.64902L9.93359 19.1105C9.94816 19.1556 9.97174 19.1973 10.0029 19.233C10.0341 19.2688 10.0721 19.2978 10.1149 19.3184C10.1576 19.339 10.204 19.3507 10.2514 19.3528C10.2988 19.3549 10.3461 19.3473 10.3904 19.3306C10.4348 19.3139 10.4753 19.2883 10.5095 19.2555C10.5437 19.2226 10.5709 19.1832 10.5894 19.1395C10.6079 19.0959 10.6173 19.0489 10.6171 19.0015C10.617 18.9541 10.6072 18.9072 10.5883 18.8637L9.26096 15.3473C9.4272 15.3953 9.59936 15.4198 9.7724 15.4199H14.2142V19.8607Z" fill="#0FD723" stroke="#0FD723" stroke-width="0.199005"/>
<path d="M10.9892 12.6438L10.4917 13.1413C10.7169 13.3731 10.9864 13.5573 11.2842 13.6829C11.5819 13.8085 11.9019 13.8731 12.225 13.8727C12.453 13.8937 12.6828 13.8673 12.8999 13.795C13.1171 13.7227 13.3169 13.6062 13.4868 13.4527C13.6566 13.2992 13.7927 13.1122 13.8866 12.9035C13.9804 12.6947 14.0299 12.4687 14.032 12.2398C14.0309 12.1593 14.0246 12.0788 14.0131 11.999C14.239 12.1038 14.4855 12.1565 14.7345 12.1533C14.9572 12.153 15.1773 12.1056 15.3803 12.014V14.5214H16.1116V8.95626H17.2768V8.34034H14.3494V8.95626H15.3803V11.3244C15.1279 11.4656 14.8414 11.5345 14.5524 11.5234C14.2314 11.5273 13.9154 11.444 13.638 11.2826C13.4757 11.1362 13.281 11.0305 13.0698 10.9742V10.9393C13.2783 10.8227 13.4517 10.6523 13.5718 10.4457C13.6919 10.2392 13.7543 10.0041 13.7524 9.76522C13.7546 9.56631 13.715 9.36915 13.6363 9.18647C13.5576 9.00379 13.4415 8.83964 13.2954 8.70462C13.1493 8.5696 12.9765 8.46672 12.7882 8.4026C12.5999 8.33848 12.4003 8.31456 12.2021 8.33238C11.9423 8.32304 11.6837 8.37375 11.4466 8.48057C11.2095 8.58739 11.0002 8.74745 10.835 8.9483L11.3454 9.40999C11.438 9.2744 11.5633 9.16444 11.7098 9.09032C11.8563 9.01621 12.0192 8.98036 12.1832 8.98611C12.2947 8.97694 12.4069 8.99199 12.512 9.03021C12.6171 9.06843 12.7128 9.12893 12.7923 9.20755C12.8719 9.28618 12.9336 9.38108 12.973 9.48575C13.0125 9.59042 13.0289 9.70238 13.0211 9.81397C13.0254 9.94363 13.002 10.0727 12.9523 10.1926C12.9026 10.3124 12.8278 10.4202 12.733 10.5087C12.6382 10.5973 12.5255 10.6644 12.4025 10.7058C12.2795 10.7471 12.1491 10.7616 12.0201 10.7483H11.7216V11.3931H12.2419C12.9255 11.3931 13.3007 11.7105 13.3007 12.2498C13.3044 12.3882 13.2782 12.5258 13.224 12.6531C13.1697 12.7805 13.0886 12.8947 12.9863 12.9879C12.8839 13.0811 12.7627 13.1511 12.6308 13.1932C12.4989 13.2353 12.3595 13.2485 12.222 13.2319C11.986 13.2305 11.7531 13.1771 11.54 13.0755C11.3269 12.9738 11.1388 12.8264 10.9892 12.6438Z" fill="#0FD723" stroke="#0FD723" stroke-width="0.199005"/>
</g>
<defs>
<clipPath id="clip0_74_2123">
<rect width="20" height="29.8507" fill="white" transform="translate(0.469727 0.074646)"/>
</clipPath>
</defs>
</svg>
