<svg width="11" height="8" viewBox="0 0 11 8" fill="none" xmlns="http://www.w3.org/2000/svg">
<g clip-path="url(#clip0_74_2135)">
<path d="M5.19982 6.27271C5.14312 6.27269 5.08698 6.26148 5.03462 6.23973C4.98225 6.21798 4.9347 6.18611 4.89468 6.14594L0.572871 1.82414C0.491822 1.74309 0.446289 1.63316 0.446289 1.51854C0.446289 1.40392 0.491822 1.294 0.572871 1.21295C0.65392 1.1319 0.763848 1.08636 0.878468 1.08636C0.993089 1.08636 1.10301 1.1319 1.18406 1.21295L5.19982 5.2287L9.21557 1.21295C9.29662 1.1319 9.40655 1.08636 9.52117 1.08636C9.63579 1.08636 9.74572 1.1319 9.82677 1.21295C9.90781 1.294 9.95335 1.40392 9.95335 1.51854C9.95335 1.63316 9.90781 1.74309 9.82677 1.82414L5.50496 6.14594C5.46494 6.18611 5.41738 6.21798 5.36502 6.23973C5.31266 6.26148 5.25652 6.27269 5.19982 6.27271Z" fill="#31CA65" stroke="#31CA65" stroke-width="0.452735"/>
</g>
<defs>
<clipPath id="clip0_74_2135">
<rect width="10" height="5.6782" fill="white" transform="translate(0.219727 0.820862)"/>
</clipPath>
</defs>
</svg>
